<svg xmlns="http://www.w3.org/2000/svg" width="768" height="768" viewBox="0 0 768 768" version="1.1">
	<path d="M -0 384.001 L -0 768.003 384.250 767.751 L 768.500 767.500 768.751 383.750 L 769.003 0 384.501 0 L 0 0 -0 384.001 M 0.495 384.500 C 0.495 595.700, 0.610 681.951, 0.750 576.169 C 0.890 470.386, 0.890 297.586, 0.750 192.169 C 0.610 86.751, 0.495 173.300, 0.495 384.500 M 519.650 120.707 C 498.972 162.255, 486.008 179.783, 462.429 198.067 C 446.503 210.416, 442.763 217.254, 442.230 235 C 441.929 244.988, 442.213 247.613, 444.389 254.969 C 445.767 259.627, 446.695 263.638, 446.452 263.882 C 446.208 264.125, 444.769 263.753, 443.254 263.054 C 436.455 259.916, 432.519 259.274, 427.658 260.508 C 424.800 261.234, 422.709 261.339, 422.360 260.774 C 421.570 259.496, 422.829 247.891, 424.612 240.015 C 427.526 227.145, 430.723 219.852, 437.331 211 L 441.437 205.500 437.741 208.543 C 424.412 219.519, 413.964 239.843, 411.414 259.754 C 410.769 264.792, 410.429 265.273, 403.121 271.492 C 398.929 275.058, 394.938 277.981, 394.250 277.988 C 392.633 278.004, 392.577 278.252, 395.623 271.937 C 400.512 261.804, 405.731 243.018, 409.483 222.052 C 411.181 212.557, 410.809 194.782, 408.981 198.086 C 407.818 200.188, 403.515 220.154, 399.948 240 C 398.218 249.625, 396.616 258.500, 396.389 259.722 C 396.027 261.669, 389.756 267, 387.829 267 C 387.440 267, 388.239 263.802, 389.605 259.893 C 393.172 249.683, 395.319 232.788, 394.750 219.410 C 394.038 202.674, 392.781 202.672, 390.733 219.405 C 388.778 235.371, 384.164 255.153, 382.250 255.766 C 381.444 256.024, 381 255.129, 381 253.243 C 381 251.635, 380.108 246.834, 379.019 242.573 C 371.004 211.237, 338.716 163.289, 311.734 142.655 C 297.343 131.650, 266.474 115.660, 253.750 112.619 C 251.118 111.990, 251.001 112.123, 251.022 115.731 C 251.034 117.804, 251.895 123.325, 252.936 128 C 259.681 158.286, 275.264 181.598, 312.500 217.106 C 340.742 244.038, 357.376 257.200, 375.662 267.088 C 380.892 269.915, 384.795 272.564, 384.336 272.974 C 383.876 273.383, 380.872 274.225, 377.659 274.844 C 371.771 275.979, 360 280.706, 360 281.936 C 360 282.301, 362.611 283.139, 365.801 283.798 C 373.031 285.291, 379.990 289.624, 383.959 295.102 C 388.161 300.903, 387.928 303.022, 383.513 299.146 C 375.099 291.758, 363.476 293.471, 358.189 302.877 C 355.444 307.761, 355.414 312.157, 358.086 317.677 C 364.380 330.680, 381.953 329.687, 387.767 316 C 389.150 312.744, 389.310 312.650, 390.059 314.653 C 391.192 317.683, 387.571 329.162, 384.212 333.186 C 380.108 338.103, 375.671 341.938, 374.047 341.971 C 373.172 341.988, 374.024 340.508, 376.187 338.250 C 379.275 335.027, 383 329.203, 383 327.599 C 383 327.323, 381.087 327.966, 378.750 329.027 C 372.638 331.801, 365.676 331.586, 360.338 328.458 C 357.952 327.060, 355.998 325.597, 355.995 325.208 C 355.992 324.819, 354.863 323.150, 353.485 321.500 L 350.980 318.500 351.178 328.335 C 351.396 339.177, 352.032 341.010, 358.064 348.179 C 362.571 353.537, 362.728 354, 360.037 354 C 356.895 354, 348.403 357.689, 343.015 361.396 C 338.860 364.254, 337.343 364.754, 333.772 364.441 C 328.253 363.958, 330.509 364.505, 347.189 367.691 C 360.203 370.178, 364.029 371.309, 362.971 372.359 C 362.712 372.616, 360.475 372.435, 358 371.957 C 352.757 370.944, 329.694 370.711, 325.122 371.626 L 321.994 372.251 325.575 376.215 C 329.805 380.897, 329.448 382.058, 324.685 379.114 C 319.924 376.172, 313.692 376.353, 307.129 379.623 C 298.240 384.052, 294.271 392.758, 295.510 405.104 L 296.190 411.868 302.934 411.302 C 308.862 410.805, 311.362 411.233, 323.589 414.832 C 343.580 420.718, 353.555 422.367, 364.794 421.645 C 374.530 421.019, 375.541 421.635, 369.723 424.643 C 367.050 426.026, 364.290 426.181, 351.536 425.668 C 336.345 425.057, 330.274 424.066, 317.445 420.103 C 311.206 418.176, 309.939 418.073, 306.482 419.212 C 299.809 421.411, 295.275 431.557, 297.779 438.687 C 298.679 441.248, 298.830 441.321, 299.465 439.500 C 301.627 433.303, 301.905 433, 305.442 433 C 307.358 433, 311.080 433.846, 313.713 434.881 C 322.370 438.282, 337.321 441.855, 348 443.075 C 380.297 446.764, 412.290 437.522, 432.860 418.561 C 438.440 413.418, 446.343 401.466, 448.627 394.716 C 451.306 386.797, 450.935 376.730, 447.732 370.437 C 445.066 365.197, 439.200 359.181, 434.310 356.671 C 429.396 354.148, 419.930 352.719, 412.627 353.398 C 397.134 354.838, 382.550 362.189, 372.008 373.870 C 365.272 381.336, 364.242 380.311, 369.567 371.441 C 374.045 363.984, 376.981 360.887, 384.360 355.841 C 399.835 345.260, 411.270 341.561, 426.440 342.232 C 448.810 343.221, 459.279 352.630, 466.233 378 C 467.780 383.643, 468.300 388.594, 468.334 398 C 468.433 425.849, 459.735 446.591, 440.178 465.140 C 426.344 478.261, 410.721 485.944, 387.916 490.841 C 365.237 495.711, 337.671 496.180, 318 492.030 C 305.477 489.389, 304.215 489.435, 302.777 492.589 C 300.141 498.375, 307.930 506.653, 319.500 510.362 C 340.052 516.950, 380.632 514.565, 410.698 505.002 C 435.209 497.206, 455.484 483.228, 469.286 464.613 C 475.619 456.071, 490.112 427.540, 493.372 417.198 C 496.950 405.846, 498.268 395.642, 497.014 389 C 493.530 370.539, 485.420 355.380, 472.023 342.293 C 460.595 331.128, 443.735 325.677, 427.235 327.812 C 422.431 328.433, 417.488 329.232, 416.250 329.587 C 412.879 330.555, 413.434 328.225, 417.422 324.664 C 420.734 321.706, 420.778 321.573, 418.770 320.554 C 415.071 318.675, 410.871 312.457, 410.269 307.966 C 409.749 304.089, 409.572 303.865, 408.348 305.539 C 406.050 308.682, 406.667 316.046, 409.589 320.346 C 412.586 324.757, 412.164 325.993, 408.483 323.581 C 405.028 321.317, 402.377 316.814, 399.983 309.145 C 394.785 292.487, 400.500 277.829, 414.753 271.269 C 427.223 265.529, 443.273 269.900, 450.649 281.046 C 453.491 285.340, 453.282 288.706, 450.273 287.098 C 444.681 284.110, 438.941 282.785, 431.913 282.862 C 427.739 282.907, 423.378 283.294, 422.220 283.722 C 420.909 284.207, 423.043 284.500, 427.877 284.500 C 434.695 284.500, 436.150 284.839, 439.858 287.290 C 446.767 291.858, 450.233 300.108, 448.520 307.908 C 447.943 310.536, 447.386 311, 444.804 311 C 442.123 311, 441.845 310.736, 442.435 308.750 C 444.304 302.462, 444.213 299.151, 442.065 295.330 C 435.664 283.940, 420.314 283.757, 414.499 295.002 C 412.730 298.423, 412.537 305.230, 414.122 308.316 C 415.749 311.482, 420.167 316, 421.637 316 C 422.332 316, 423.286 316.689, 423.757 317.530 C 424.503 318.864, 425.344 318.738, 430.283 316.553 C 438.172 313.065, 447.509 311.716, 455.200 312.955 C 458.600 313.502, 461.597 313.737, 461.858 313.475 C 462.119 313.214, 461.514 313, 460.512 313 C 458.754 313, 458.754 312.929, 460.497 311.003 C 461.896 309.458, 462.411 306.787, 462.777 299.188 C 463.295 288.424, 461.922 281.727, 457.345 272.693 C 455.981 270.003, 455.061 267.606, 455.300 267.367 C 455.975 266.691, 464.882 268.888, 467.993 270.496 L 470.782 271.939 471.416 267.715 C 472.370 261.350, 476.740 254.597, 487.640 242.640 C 509.396 218.776, 519.131 199.944, 525.963 168.500 C 530.385 148.153, 532.332 118.900, 530.176 105.207 L 529.500 100.913 519.650 120.707 M 268.657 128.055 C 267.196 129.205, 266 131.029, 266 132.110 C 266 133.191, 267.577 138.159, 269.505 143.151 C 282.152 175.898, 306.561 206.411, 340.500 231.899 C 353.376 241.569, 373.144 254.118, 374.957 253.773 C 375.805 253.612, 376.635 252.538, 376.800 251.386 C 377.549 246.169, 358.651 205.964, 347.711 189.500 C 332.505 166.614, 314.147 148.843, 292.510 136.063 C 276.721 126.737, 272.244 125.234, 268.657 128.055 M 520.247 136.250 C 519.698 136.938, 517.541 140.650, 515.453 144.500 C 503.997 165.625, 492.875 180.516, 473.999 200 C 455.039 219.571, 451.081 227.645, 453.962 240.872 C 455.709 248.888, 462.615 259.974, 464.959 258.525 C 465.421 258.240, 467.882 253.724, 470.429 248.489 C 474.647 239.817, 476.374 237.609, 489.854 223.652 C 512.392 200.314, 520.275 185.480, 525.410 156.748 C 528.152 141.409, 528.312 138.455, 526.502 136.645 C 524.548 134.691, 521.638 134.507, 520.247 136.250 M 279 140.755 C 279 142.234, 285.941 158.043, 288.681 162.803 C 304.218 189.801, 329.106 216.466, 357.849 236.909 C 361.891 239.784, 365.368 241.965, 365.577 241.757 C 365.785 241.548, 360.340 231.505, 353.476 219.439 C 336.255 189.167, 323.515 172.588, 306.500 158.308 C 296.528 149.939, 279 138.751, 279 140.755 M 512.534 166.316 C 504.263 179.327, 494.222 191.694, 480.614 205.627 C 463.904 222.735, 460.480 228.160, 460.538 237.429 C 460.561 241.016, 461.229 244.707, 462.171 246.449 L 463.765 249.398 466.517 243.949 C 470.785 235.500, 474.284 230.869, 484.790 219.771 C 503.428 200.082, 508.831 190.970, 514.563 169.562 C 515.880 164.646, 516.846 160.513, 516.711 160.377 C 516.575 160.242, 514.696 162.914, 512.534 166.316 M 425.073 293.635 C 420.623 299.292, 423.895 307.494, 431.055 308.633 C 433.945 309.093, 435.209 308.695, 437.805 306.510 C 442.015 302.968, 442.236 299, 438.223 299 C 434.386 299, 431 296.395, 431 293.443 C 431 290.103, 427.769 290.207, 425.073 293.635 M 370.251 300.776 C 367.634 302.791, 366.011 307.607, 366.713 311.277 C 368.087 318.466, 378.792 321.269, 383.587 315.694 C 384.914 314.151, 386 311.789, 386 310.444 C 386 308.276, 385.566 308, 382.155 308 C 377.662 308, 375 305.646, 375 301.671 C 375 298.592, 373.464 298.303, 370.251 300.776 M 322 336.619 C 315.675 338.559, 307.575 341.297, 304 342.703 C 276.904 353.362, 246.756 373.785, 226.641 395.108 L 217.309 405.001 216.601 448.250 C 216.212 472.038, 215.580 495.775, 215.197 501 C 214.408 511.752, 214.692 517, 216.063 517 C 216.579 517, 217 516.325, 217 515.500 C 217 514.675, 217.255 514, 217.566 514 C 218.651 514, 222.505 516.308, 223.196 517.371 C 223.578 517.960, 224.162 518.171, 224.493 517.840 C 224.824 517.509, 224.431 516.574, 223.620 515.763 C 222.808 514.951, 221.870 512.535, 221.534 510.394 L 220.924 506.500 222.381 509.500 L 223.838 512.500 223.919 509.309 C 223.963 507.554, 223.550 505.840, 223 505.500 C 221.679 504.684, 221.717 503, 223.056 503 C 224.776 503, 228.241 511.903, 227.567 514.589 C 226.860 517.405, 227.905 517.618, 232.011 515.494 C 234.726 514.090, 234.996 514.124, 235.997 515.994 C 236.587 517.097, 237.574 518, 238.190 518 C 238.855 518, 238.683 517.289, 237.766 516.250 C 236.917 515.288, 235.931 512.925, 235.574 511 C 234.950 507.635, 234.979 507.592, 236.320 509.885 C 238.077 512.890, 239.200 511.281, 238.043 507.414 C 237.564 505.811, 237.133 505.138, 237.086 505.917 C 237.039 506.696, 236.734 507.067, 236.408 506.742 C 236.083 506.416, 236.258 505.361, 236.797 504.397 C 237.644 502.886, 238.068 503.213, 239.889 506.783 C 241.050 509.058, 242 512.471, 242 514.367 L 242 517.813 245.500 516.739 C 247.836 516.022, 249 515.055, 249 513.832 C 249 512.824, 249.394 512, 249.875 512 C 250.356 512, 251.020 510.650, 251.350 509 C 251.680 507.350, 252.420 506, 252.994 506 C 253.612 506, 253.793 507.123, 253.438 508.750 C 252.976 510.868, 253.083 511.155, 253.904 510 C 254.687 508.897, 254.973 508.847, 254.985 509.809 C 254.993 510.542, 255.508 510.804, 256.155 510.405 C 256.825 509.990, 257.039 510.128, 256.666 510.732 C 256.312 511.305, 256.692 512.329, 257.511 513.009 C 258.783 514.065, 259.023 513.680, 259.160 510.372 C 259.313 506.680, 259.339 506.651, 259.723 509.750 C 259.945 511.538, 260.611 513, 261.203 513 C 261.905 513, 262.074 511.275, 261.690 508.028 C 261.363 505.271, 261.524 502.794, 262.050 502.469 C 262.573 502.146, 263.056 502.359, 263.125 502.941 C 263.194 503.523, 263.306 504.428, 263.375 504.950 C 263.444 505.473, 264.063 506.463, 264.750 507.150 C 266.286 508.686, 266.376 513.430, 264.919 516.151 C 263.414 518.963, 264.153 519.269, 267.912 517.394 C 269.764 516.470, 272.312 516.012, 273.871 516.324 C 277.175 516.985, 279.497 515.737, 278.722 513.718 C 278.281 512.568, 279.024 512.222, 282.020 512.180 C 284.985 512.139, 285.760 512.462, 285.337 513.563 C 285.034 514.354, 285.233 515, 285.780 515 C 287.373 515, 288.287 509.139, 288.092 500.168 C 287.890 490.847, 290.135 481.777, 295.171 471.569 L 298.097 465.639 295.013 459.069 C 293.316 455.456, 291.191 451.150, 290.289 449.500 C 284.676 439.233, 284.500 438.636, 284.500 429.911 C 284.500 425.186, 284.009 420.686, 283.408 419.911 C 278.743 413.883, 276.766 398.345, 279.372 388.187 C 283.164 373.401, 292.967 366.635, 319.341 360.600 C 325.559 359.177, 333.601 355.094, 339.846 350.189 L 342.192 348.347 338.550 340.673 C 336.547 336.453, 334.592 333.021, 334.204 333.046 C 333.817 333.071, 328.325 334.679, 322 336.619 M 507.411 369.095 C 510.602 384.118, 509.902 401.348, 505.421 418.105 C 502.769 428.019, 489.643 454.855, 481.809 466.375 C 478.714 470.927, 477.956 472.840, 478.441 474.875 C 478.786 476.319, 479.726 481.100, 480.530 485.500 C 482.489 496.223, 484.930 503.997, 486.343 504.015 C 487.115 504.026, 487.071 504.303, 486.211 504.848 C 485.229 505.471, 485.175 506.360, 485.982 508.583 C 487.711 513.344, 489.199 515.862, 490.600 516.400 C 491.478 516.737, 491.233 515.590, 489.869 512.974 C 488.742 510.811, 488.034 508.469, 488.296 507.771 C 488.584 507.001, 489.146 507.455, 489.721 508.921 C 491.043 512.293, 492.142 509.980, 491.041 506.142 C 490.545 504.414, 490.509 503, 490.961 503 C 492.221 503, 495 510.656, 495 514.127 C 495 516.675, 495.306 517.088, 496.750 516.494 C 497.712 516.097, 499.262 515.553, 500.193 515.285 C 501.124 515.016, 502.153 513.605, 502.480 512.148 C 502.808 510.692, 503.970 508.375, 505.063 507 L 507.051 504.500 506.417 507.250 C 505.942 509.310, 506.160 510, 507.285 510 C 508.110 510, 509.045 510.675, 509.362 511.500 C 510.371 514.131, 511.995 513.112, 512.150 509.750 C 512.289 506.725, 512.329 506.690, 512.716 509.250 C 512.945 510.762, 513.616 512, 514.206 512 C 514.910 512, 515.084 510.104, 514.712 506.500 C 514.400 503.475, 514.297 501, 514.483 501 C 514.669 501, 515.762 502.942, 516.911 505.316 C 519.251 510.151, 519.586 514.014, 517.817 515.783 C 515.821 517.779, 517.500 518.107, 521.390 516.481 C 523.424 515.632, 525.513 515.199, 526.033 515.520 C 527.407 516.369, 524.108 520.979, 522.554 520.382 C 521.841 520.109, 520.962 520.657, 520.600 521.600 C 520.010 523.137, 519.716 523.072, 517.766 520.979 L 515.590 518.643 514.595 522.072 C 513.607 525.475, 513.597 525.480, 513.234 522.750 C 512.927 520.450, 512.573 520.158, 511.066 520.965 C 508.354 522.416, 509.495 527, 512.567 527 C 513.850 527, 515.399 526.212, 516.008 525.250 C 516.831 523.951, 517.255 523.833, 517.655 524.792 C 518.051 525.740, 518.544 525.793, 519.508 524.993 C 520.418 524.238, 521.021 524.225, 521.470 524.951 C 522.620 526.812, 525.745 526.067, 526.510 523.750 L 527.254 521.500 527.697 523.750 C 528.255 526.589, 531.523 526.737, 533.232 524 C 534.628 521.765, 538.895 521.338, 542.193 523.103 C 543.734 523.928, 544.443 523.901, 545.002 522.996 C 545.546 522.117, 545.940 522.094, 546.444 522.910 C 546.826 523.527, 547.510 523.803, 547.964 523.522 C 548.419 523.241, 549.111 523.796, 549.503 524.756 C 550.155 526.353, 550.284 526.332, 551.037 524.500 C 552.433 521.105, 552.172 518.720, 550.477 519.371 C 549.187 519.866, 549.036 519.098, 549.495 514.372 C 549.794 511.301, 550.468 506.923, 550.994 504.644 C 551.521 502.365, 551.962 497.688, 551.976 494.250 L 552 488 547.500 488 C 544.567 488, 543 487.565, 542.999 486.750 C 542.998 485.946, 544.514 485.500, 547.249 485.500 L 551.500 485.500 551.470 473 C 551.453 466.125, 551.341 447.928, 551.220 432.563 L 551 404.626 538.750 392.514 C 532.013 385.853, 522.675 377.462, 518 373.868 C 506.331 364.897, 506.540 364.991, 507.411 369.095 M 406.500 368.497 C 405.950 368.684, 403.781 369.124, 401.681 369.476 L 397.861 370.117 401.799 372.969 C 409.105 378.262, 412.459 386.049, 410.609 393.422 C 409.743 396.873, 404.509 402.653, 399.025 406.216 L 394.500 409.155 400.310 408.562 C 415.669 406.994, 428.732 394.048, 426.573 382.537 C 425.555 377.109, 419.848 371.329, 413.707 369.506 C 408.500 367.959, 408.206 367.918, 406.500 368.497 M 457.045 392.680 C 455.998 400.607, 455.990 403.656, 457.003 408.500 C 458.150 413.987, 458.344 414.286, 459.263 412 C 460.614 408.639, 460.717 386.975, 459.393 384.680 C 458.564 383.244, 458.069 384.931, 457.045 392.680 M 449.194 411.326 C 447.137 415.445, 447.099 415.997, 448.413 422.888 C 449.171 426.868, 449.973 430.306, 450.194 430.527 C 451.134 431.467, 456.050 425.716, 455.628 424.170 C 455.377 423.252, 454.427 419.012, 453.517 414.750 C 452.608 410.488, 451.749 407, 451.609 407 C 451.469 407, 450.382 408.947, 449.194 411.326 M 440.424 421.289 C 435.961 426.564, 435.625 427.298, 435.826 431.332 C 435.939 433.624, 436.286 436.739, 436.597 438.254 L 437.161 441.009 441.580 437.835 C 444.011 436.089, 446 434.400, 446 434.080 C 446 432.798, 443.107 419.774, 442.741 419.408 C 442.525 419.191, 441.482 420.038, 440.424 421.289 M 424.750 434.154 C 420.034 437.148, 420 437.208, 420 442.616 C 420 449.401, 421.302 450.079, 427.433 446.486 C 431.383 444.171, 432 443.367, 432 440.530 C 432 436.343, 430.937 430.979, 430.125 431.070 C 429.781 431.108, 427.363 432.496, 424.750 434.154 M 407.250 442.754 L 401 445.315 401 450.599 C 401 453.504, 401.408 456.134, 401.907 456.443 C 402.817 457.005, 413.734 453.329, 415.375 451.908 C 416.359 451.056, 415.233 439.946, 414.178 440.097 C 413.805 440.150, 410.688 441.346, 407.250 442.754 M 442.250 444.099 C 438.164 446.993, 436.979 449.251, 438.916 450.448 C 439.833 451.015, 447 443.365, 447 441.820 C 447 440.717, 447.081 440.678, 442.250 444.099 M 309.527 449.250 C 307.558 457.921, 307.200 460.599, 307.913 461.313 C 309.175 462.575, 326.155 465.253, 327.013 464.325 C 327.433 463.871, 328.078 460.545, 328.448 456.933 L 329.120 450.366 321.287 448.683 C 311.141 446.503, 310.140 446.551, 309.527 449.250 M 391.500 448 C 390.400 448.473, 388.138 448.891, 386.473 448.930 C 381.237 449.051, 379 451.435, 379 456.890 C 379 459.517, 379.237 461.903, 379.526 462.192 C 379.815 462.482, 383.865 461.790, 388.526 460.655 L 397 458.591 397 454.377 C 397 447.271, 395.972 446.078, 391.500 448 M 427.500 452.773 C 422.152 455.690, 421.182 457.718, 422.933 462.325 L 423.958 465.019 428.729 461.394 C 431.353 459.400, 433.797 457.258, 434.159 456.634 C 434.916 455.333, 434.086 449.988, 433.133 450.023 C 432.785 450.036, 430.250 451.274, 427.500 452.773 M 334.149 453.123 C 333.655 454.430, 332.930 457.409, 332.539 459.742 C 331.875 463.698, 332.005 464.052, 334.479 464.992 C 338.168 466.395, 349.337 466.263, 350.800 464.800 C 351.460 464.140, 352 460.990, 352 457.800 L 352 452 347.250 451.989 C 344.637 451.983, 340.823 451.701, 338.774 451.362 C 335.491 450.819, 334.940 451.029, 334.149 453.123 M 364.904 451.965 C 357.440 452.678, 356 454.021, 356 460.266 L 356 465.288 364.244 464.600 C 368.778 464.222, 372.912 463.488, 373.430 462.970 C 373.948 462.452, 374.401 459.943, 374.436 457.394 C 374.513 451.848, 373.307 451.162, 364.904 451.965 M 409.500 460.220 C 406.200 461.350, 403.341 462.408, 403.147 462.573 C 402.581 463.053, 404.056 472.473, 404.915 473.863 C 405.511 474.827, 407.290 474.345, 412.349 471.850 C 419.389 468.379, 419.898 467.428, 418.123 461.074 C 417.228 457.871, 416.557 457.805, 409.500 460.220 M 387.132 466.501 C 380.070 467.901, 378.695 469.134, 379.473 473.375 C 379.763 474.956, 380.007 477.206, 380.015 478.375 C 380.050 483.156, 381.126 483.355, 390.980 480.398 L 400.234 477.621 399.651 472.704 C 398.693 464.615, 398.108 464.325, 387.132 466.501 M 306.607 469.582 C 305.578 472.263, 305.935 476.045, 307.250 476.407 C 307.938 476.596, 311.425 477.248, 315 477.854 C 318.575 478.461, 322.765 479.250, 324.310 479.607 L 327.120 480.256 326.810 475.423 L 326.500 470.591 318 469.338 C 307.085 467.729, 307.320 467.724, 306.607 469.582 M 364.427 469.951 C 361.087 470.343, 357.824 470.991, 357.177 471.391 C 355.881 472.192, 355.502 484.576, 356.750 485.343 C 357.988 486.103, 374.219 484.181, 375.248 483.152 C 375.833 482.567, 375.873 479.749, 375.351 475.849 C 374.386 468.651, 374.589 468.760, 364.427 469.951 M 331.460 474.363 C 330.540 479.266, 331.171 481.315, 334.022 482.682 C 337.528 484.362, 349.270 486.130, 350.272 485.128 C 350.729 484.671, 350.967 481.418, 350.802 477.898 L 350.500 471.500 341.302 471.213 L 332.104 470.926 331.460 474.363 M 515.193 480.750 L 515 488 522.250 487.825 C 527.054 487.710, 527.982 487.536, 525 487.312 C 516.090 486.640, 516.134 486.677, 515.740 479.743 L 515.385 473.500 515.193 480.750 M 543.158 477 C 543.158 478.375, 543.385 478.938, 543.662 478.250 C 543.940 477.563, 543.940 476.438, 543.662 475.750 C 543.385 475.063, 543.158 475.625, 543.158 477 M 264 482.562 L 264 489.124 270.089 488.822 C 278.076 488.426, 278.849 487, 271.077 487 L 265.036 487 265.147 482.054 C 265.250 477.522, 265.479 477.074, 267.879 476.704 C 270.162 476.352, 270.080 476.280, 267.250 476.150 L 264 476 264 482.562 M 505 481.531 C 505 483.149, 506.563 483.517, 507.435 482.105 C 507.740 481.612, 507.316 480.952, 506.494 480.636 C 505.587 480.288, 505 480.639, 505 481.531 M 533.150 480.950 C 533.580 482.239, 534.951 482.471, 535.075 481.275 C 535.116 480.876, 534.610 480.370, 533.950 480.150 C 533.290 479.930, 532.930 480.290, 533.150 480.950 M 226 482.031 C 226 482.564, 226.675 483, 227.500 483 C 228.325 483, 229 482.823, 229 482.607 C 229 482.391, 228.325 481.955, 227.500 481.638 C 226.675 481.322, 226 481.499, 226 482.031 M 254 482.031 C 254 482.564, 254.675 483, 255.500 483 C 256.325 483, 257 482.823, 257 482.607 C 257 482.391, 256.325 481.955, 255.500 481.638 C 254.675 481.322, 254 481.499, 254 482.031 M 282 482.031 C 282 482.564, 282.675 483, 283.500 483 C 284.325 483, 285 482.823, 285 482.607 C 285 482.391, 284.325 481.955, 283.500 481.638 C 282.675 481.322, 282 481.499, 282 482.031 M 487 487 C 487 487.550, 488.238 487.968, 489.750 487.930 C 492.187 487.867, 492.272 487.762, 490.500 487 C 487.769 485.826, 487 485.826, 487 487 M 236.500 488 C 236.840 488.550, 237.793 489, 238.618 489 C 239.443 489, 239.840 488.550, 239.500 488 C 239.160 487.450, 238.207 487, 237.382 487 C 236.557 487, 236.160 487.450, 236.500 488 M 541.882 504.750 C 541.816 506.262, 541.816 507.837, 541.882 508.250 C 541.947 508.663, 541.550 509, 541 509 C 540.450 509, 540 510.383, 540 512.073 L 540 515.145 537.365 513.073 C 532.510 509.253, 530.726 510.636, 533.526 516.050 C 535.092 519.079, 535.376 519.216, 540.500 519.408 C 542.150 519.470, 544.063 519.880, 544.750 520.319 C 545.438 520.759, 546.450 520.840, 547 520.500 C 548.740 519.424, 548.087 517.287, 545.500 515.592 C 542.913 513.897, 542.334 510.539, 543.932 506.500 C 544.807 504.289, 544.278 502, 542.893 502 C 542.402 502, 541.947 503.238, 541.882 504.750 M 290 508.296 C 290 509.143, 289.727 510.548, 289.393 511.417 C 289.008 512.422, 289.920 514.057, 291.898 515.905 C 293.892 517.767, 294.790 519.384, 294.398 520.406 C 293.695 522.238, 291.439 522.519, 290.438 520.899 C 290.058 520.284, 288.524 520.045, 286.961 520.358 C 285.103 520.729, 283.382 520.311, 281.832 519.112 C 278.981 516.905, 272 517.334, 272 519.716 C 272 520.630, 271.421 520.992, 270.515 520.644 C 268.349 519.813, 266.876 523.110, 268.451 525.264 C 270.110 527.533, 270.803 527.455, 273.038 524.750 L 274.896 522.500 274.332 524.750 C 273.854 526.653, 274.169 527, 276.375 527 C 277.900 527, 279.502 526.170, 280.232 525 C 281.640 522.746, 285.902 522.342, 289.268 524.143 C 290.705 524.912, 291.518 524.947, 291.750 524.250 C 292.156 523.033, 296 523.818, 296 525.117 C 296 526.713, 297.908 526.040, 298.961 524.072 C 300.190 521.776, 299.337 518.933, 297.616 519.594 C 296.809 519.903, 296.364 518.860, 296.297 516.501 C 296.187 512.611, 294.377 509.649, 292.732 510.666 C 292.160 511.019, 291.981 510.840, 292.334 510.268 C 292.688 509.695, 292.308 508.671, 291.489 507.991 C 290.280 506.987, 290 507.045, 290 508.296 M 545 508 C 545 508.550, 545.477 509, 546.059 509 C 546.641 509, 546.840 508.550, 546.500 508 C 546.160 507.450, 545.684 507, 545.441 507 C 545.198 507, 545 507.450, 545 508 M 463.500 513.708 C 455.357 517.146, 432.891 522.740, 421.128 524.258 C 411.716 525.472, 412.194 525.511, 442.500 526 C 459.550 526.275, 474.192 526.360, 475.038 526.189 C 476.362 525.921, 476.235 524.839, 474.132 518.439 C 472.788 514.347, 471.195 511.039, 470.594 511.087 C 469.992 511.135, 466.800 512.314, 463.500 513.708 M 506.625 514.535 C 506.321 515.328, 506.393 515.886, 506.786 515.776 C 507.179 515.665, 508.502 516.131, 509.727 516.811 C 511.527 517.809, 511.859 517.797, 511.458 516.752 C 511.185 516.040, 510.110 514.925, 509.070 514.276 C 507.557 513.331, 507.067 513.383, 506.625 514.535 M 253.079 515.583 C 253.127 516.748, 253.364 516.985, 253.683 516.188 C 253.972 515.466, 253.936 514.603, 253.604 514.271 C 253.272 513.939, 253.036 514.529, 253.079 515.583 M 255 515.819 C 255 517.027, 256.897 518.436, 257.591 517.743 C 257.842 517.491, 257.362 516.716, 256.524 516.020 C 255.574 515.231, 255 515.155, 255 515.819 M 502.795 520.294 C 499.101 522.493, 499.085 522.494, 497.576 520.500 C 496.272 518.776, 496.059 518.733, 496.032 520.191 C 496.014 521.121, 496.451 522.161, 497.003 522.502 C 497.670 522.914, 497.658 523.771, 496.968 525.061 C 495.523 527.760, 497.223 527.524, 500.778 524.533 L 503.710 522.066 503.238 524.533 C 502.695 527.377, 504.959 527.959, 507 525.500 C 507.978 524.322, 507.981 524, 507.015 524 C 506.320 524, 506.049 523.349, 506.393 522.500 C 506.727 521.675, 507.273 520.325, 507.607 519.500 C 508.428 517.470, 507.197 517.674, 502.795 520.294 M 215.250 519.662 C 213.660 520.304, 213.588 527, 215.171 527 C 215.815 527, 217.165 526.255, 218.171 525.345 C 219.873 523.805, 220 523.805, 220 525.345 C 220 527.267, 225.436 527.721, 226.566 525.893 C 227.053 525.106, 227.470 525.143, 228.013 526.021 C 228.965 527.561, 231.251 526.299, 230.442 524.681 C 230.117 524.031, 230.497 524.288, 231.286 525.250 C 233.195 527.579, 234.438 527.456, 236.326 524.750 L 237.895 522.500 237.948 524.750 C 238.010 527.450, 240.528 527.737, 243.171 525.345 C 244.875 523.803, 245 523.806, 245 525.389 C 245 527.204, 247.926 527.281, 249.235 525.500 C 249.690 524.881, 249.975 524.976, 249.985 525.750 C 249.993 526.438, 250.873 527, 251.941 527 C 254.110 527, 255.605 525.368, 253.944 524.815 C 253.195 524.565, 253.185 523.643, 253.913 521.729 C 255.123 518.547, 253.768 518.074, 250.334 520.479 C 248.465 521.788, 247.865 521.779, 245.104 520.402 C 242.171 518.939, 241.771 518.978, 238.391 521.067 C 235.747 522.701, 234.600 522.971, 234.053 522.086 C 233.602 521.357, 232.310 521.135, 230.764 521.523 C 229.321 521.885, 227.929 521.694, 227.550 521.081 C 226.574 519.502, 225 519.761, 225 521.500 C 225 522.325, 224.550 523, 224 523 C 223.450 523, 223 522.564, 223 522.031 C 223 521.499, 222.397 521.294, 221.660 521.577 C 220.923 521.860, 219.743 521.396, 219.038 520.546 C 217.696 518.928, 217.299 518.836, 215.250 519.662 M 261.490 521.016 C 261.144 521.575, 260.423 521.762, 259.887 521.430 C 258.312 520.457, 256.162 522.904, 256.720 525.037 C 257.307 527.284, 262.493 527.843, 263.338 525.750 C 263.741 524.750, 263.858 524.750, 263.921 525.750 C 264.016 527.246, 267 527.454, 267 525.965 C 267 524.504, 263.937 520, 262.944 520 C 262.490 520, 261.835 520.457, 261.490 521.016 M 241 522 C 241 522.550, 241.450 523, 242 523 C 242.550 523, 243 522.550, 243 522 C 243 521.450, 242.550 521, 242 521 C 241.450 521, 241 521.450, 241 522 M 492.019 522.477 C 490.677 524.094, 491.444 526, 493.437 526 C 494.162 526, 495.289 525.356, 495.942 524.570 C 496.889 523.429, 496.733 522.927, 495.170 522.091 C 493.695 521.301, 492.915 521.397, 492.019 522.477 M 311 523 C 311 523.550, 312.238 523.993, 313.750 523.985 C 315.893 523.973, 316.169 523.755, 315 523 C 313.043 521.736, 311 521.736, 311 523 M 300 524.941 C 300 526.073, 300.450 527, 301 527 C 301.550 527, 302 526.352, 302 525.559 C 302 524.766, 301.550 523.840, 301 523.500 C 300.450 523.160, 300 523.809, 300 524.941 M 535 524.365 C 535 525.262, 535.817 525.814, 537.012 525.724 C 539.362 525.547, 539.105 523.649, 536.667 523.177 C 535.704 522.990, 535 523.491, 535 524.365 M 282 525.365 C 282 526.262, 282.817 526.814, 284.012 526.724 C 286.362 526.547, 286.105 524.649, 283.667 524.177 C 282.704 523.990, 282 524.491, 282 525.365 M 276.746 543.022 C 257.334 547.927, 244.218 567.938, 247.798 587.187 C 250.985 604.329, 263.113 616.358, 279.940 619.068 C 291.777 620.974, 303.065 617.449, 312.375 608.941 C 332.482 590.564, 327.274 557.446, 302.450 545.830 C 295.327 542.497, 283.806 541.238, 276.746 543.022 M 173.490 546.250 C 173.189 547.487, 173.067 564.025, 173.221 583 L 173.500 617.500 194.500 617.422 C 211.001 617.360, 216.707 616.986, 221.136 615.677 C 228.859 613.393, 235.794 607.041, 239.562 598.800 C 242.196 593.040, 242.446 591.515, 242.472 581 C 242.505 567.387, 240.686 561.197, 234.630 554.317 C 227.047 545.702, 220.152 544, 192.835 544 C 174.171 544, 174.034 544.016, 173.490 546.250 M 328.501 546.218 C 328.197 547.473, 328.072 576.625, 328.224 611 L 328.500 673.500 339.750 673.783 L 351 674.066 351 626.974 C 351 600.313, 351.380 580.117, 351.875 580.423 C 352.356 580.720, 357.595 589.072, 363.517 598.982 C 369.438 608.892, 374.639 617, 375.074 617 C 375.509 617, 382.533 609.801, 390.683 601.001 C 398.832 592.202, 405.900 585.002, 406.389 585.001 C 406.877 585.001, 414.816 592.200, 424.031 601 C 433.245 609.800, 441.058 617, 441.392 617 C 441.726 617, 442 611.086, 442 603.857 L 442 590.714 437.250 586.100 C 434.637 583.563, 430.137 579.334, 427.250 576.703 C 424.363 574.072, 422 571.503, 422 570.993 C 422 570.484, 427.383 564.539, 433.962 557.784 L 445.924 545.500 445.962 580.550 C 445.990 606.434, 446.314 615.914, 447.200 616.800 C 448.076 617.676, 455.919 618, 476.238 618 L 504.075 618 503.788 608.750 L 503.500 599.500 487.263 599.225 C 471.108 598.952, 471.023 598.939, 470.430 596.577 C 470.102 595.272, 469.984 593.145, 470.167 591.852 C 470.498 589.515, 470.604 589.497, 487 589 L 503.500 588.500 503.500 580 L 503.500 571.500 487 571 L 470.500 570.500 470.500 566.500 L 470.500 562.500 487.250 562.226 L 504 561.952 504 552.976 L 504 544 463.343 544 L 422.685 544 410.877 555.663 L 399.069 567.326 398.784 555.913 L 398.500 544.500 387 544.500 L 375.500 544.500 375 563.500 L 374.500 582.500 372.272 579 C 371.047 577.075, 365.849 568.525, 360.721 560 L 351.397 544.500 340.226 544.218 C 329.315 543.942, 329.042 543.988, 328.501 546.218 M 510 544.965 C 510 545.495, 512.637 550.333, 515.859 555.715 C 519.082 561.097, 524.919 571.012, 528.831 577.750 L 535.944 590 536.222 603.750 L 536.500 617.500 548 617.500 L 559.500 617.500 560.039 603.500 L 560.578 589.500 573.286 567.500 C 580.275 555.400, 585.996 545.149, 585.997 544.720 C 585.999 544.291, 580.263 544.066, 573.250 544.220 L 560.500 544.500 554.363 556.460 L 548.226 568.419 542.105 556.210 L 535.985 544 522.992 544 C 515.314 544, 510 544.395, 510 544.965 M 276.929 563.750 C 264.846 569.870, 262.628 584.891, 272.368 594.632 C 278.717 600.980, 287.229 602.398, 295.102 598.417 C 300.636 595.619, 305.989 587.056, 305.989 581 C 305.989 576.945, 303.449 571.358, 299.811 567.411 C 293.370 560.423, 285.867 559.223, 276.929 563.750 M 197.443 564.288 C 197.171 564.997, 197.073 572.985, 197.224 582.038 L 197.500 598.500 201.153 599.403 C 204.173 600.149, 205.647 599.889, 209.653 597.903 C 216.103 594.706, 219 589.214, 219 580.189 C 219 571.686, 216.871 567.300, 211.576 564.895 C 206.811 562.731, 198.183 562.360, 197.443 564.288 M 356.708 627.626 C 356.318 628.015, 356 638.383, 356 650.667 L 356 673 359 673 L 362 673 362 663.060 L 362 653.121 365.750 652.810 C 369.006 652.541, 369.542 652.138, 369.816 649.750 C 370.116 647.149, 369.913 647, 366.066 647 L 362 647 362 640 L 362 633 366.566 633 C 370.958 633, 371.121 632.895, 370.816 630.250 C 370.511 627.597, 370.269 627.490, 363.958 627.209 C 360.359 627.049, 357.097 627.237, 356.708 627.626 M 379.585 628.066 C 377.982 628.533, 376.302 629.497, 375.851 630.208 C 375.400 630.918, 375.024 640.837, 375.015 652.250 L 375 673 378 673 L 381 673 381 665 L 381 657 384.500 657 L 388 657 388 665 L 388 673 391 673 L 394 673 394 652.611 C 394 634.603, 393.793 631.967, 392.232 630.038 C 390.250 627.591, 384.368 626.674, 379.585 628.066 M 399.746 627.587 C 399.336 627.998, 399 638.412, 399 650.730 L 399 673.127 402.250 672.813 L 405.500 672.500 405.789 663.750 C 406.014 656.929, 406.396 655, 407.520 655 C 408.313 655, 409.241 656.237, 409.581 657.750 C 409.922 659.263, 410.560 662.075, 411 664 C 411.440 665.925, 412.078 668.737, 412.419 670.250 C 412.925 672.496, 413.584 673, 416.019 673 C 417.659 673, 419 672.759, 419 672.464 C 419 672.169, 418.042 668.106, 416.870 663.436 C 414.898 655.570, 414.861 654.811, 416.370 653.143 C 418.453 650.841, 418.736 632.388, 416.730 629.645 C 415.793 628.364, 413.491 627.767, 407.976 627.374 C 403.860 627.081, 400.157 627.177, 399.746 627.587 M 423.667 627.667 C 423.300 628.033, 423 638.383, 423 650.667 L 423 673 426.347 673 L 429.693 673 429.362 660.250 C 429.023 647.200, 429.542 647.015, 432.003 659.308 C 433.095 664.763, 433.327 665.098, 435.816 664.808 C 438.259 664.524, 438.584 663.914, 439.983 657 L 441.500 649.500 441.782 661.250 L 442.063 673 445.051 673 L 448.038 673 447.769 650.250 L 447.500 627.500 445.135 627.165 C 443.834 626.981, 442.396 627.206, 441.940 627.665 C 441.484 628.124, 440.168 633, 439.016 638.500 C 435.834 653.698, 435.685 653.758, 433.044 640.901 C 431.756 634.630, 430.496 628.938, 430.244 628.250 C 429.766 626.946, 424.826 626.508, 423.667 627.667 M 468.500 627.720 C 464.360 628.649, 464 630.481, 464 650.620 C 464 673.813, 463.598 673, 475.071 673 L 483 673 483 662 L 483 651 478 651 C 473.317 651, 473 651.160, 473 653.531 C 473 654.924, 473.675 656.322, 474.500 656.638 C 476.582 657.437, 476.658 668, 474.582 668 C 470.109 668, 470 667.583, 470 650.460 C 470 634.752, 470.079 634.110, 472.101 633.468 C 474.720 632.637, 475.755 633.661, 476.173 637.500 C 476.456 640.094, 476.906 640.500, 479.500 640.500 C 482.294 640.500, 482.521 640.220, 482.799 636.421 C 483.215 630.748, 480.838 628.065, 475 627.617 C 472.525 627.427, 469.600 627.474, 468.500 627.720 M 492.259 627.724 C 487.487 628.602, 487 630.916, 487 652.723 L 487 673 490.500 673 L 494 673 494 665 L 494 657 497 657 L 500 657 500 665.063 L 500 673.127 503.250 672.813 L 506.500 672.500 506.500 651.784 C 506.500 634.422, 506.249 630.818, 504.953 629.523 C 503.388 627.960, 496.377 626.967, 492.259 627.724 M 512 650 L 512 673 514.968 673 L 517.937 673 518.218 661.250 L 518.500 649.500 520.017 657 C 521.395 663.810, 521.768 664.527, 524.071 664.798 C 526.482 665.080, 526.715 664.658, 528.761 656.298 L 530.915 647.500 530.519 660.250 L 530.123 673 533.580 673 L 537.038 673 536.769 650.250 L 536.500 627.500 533.033 627.500 L 529.566 627.500 527.111 639.948 C 524.353 653.932, 524.209 653.900, 521.001 638.594 C 519.859 633.145, 518.690 628.307, 518.403 627.844 C 518.117 627.380, 516.559 627, 514.941 627 L 512 627 512 650 M 542.706 627.627 C 542.318 628.015, 542 638.383, 542 650.667 L 542 673 550.066 673 L 558.133 673 557.816 670.250 C 557.538 667.829, 557.024 667.461, 553.513 667.176 C 551.320 666.997, 549.170 666.322, 548.734 665.676 C 548.299 665.029, 548.068 662.025, 548.221 659 L 548.500 653.500 552.500 653 C 555.972 652.566, 556.542 652.137, 556.816 649.750 C 557.114 647.160, 556.903 647, 553.175 647 C 548.256 647, 547.916 646.011, 548.875 634.500 C 548.966 633.404, 550.230 633, 553.566 633 C 557.958 633, 558.121 632.895, 557.816 630.250 C 557.508 627.572, 557.315 627.492, 550.456 627.210 C 546.582 627.051, 543.095 627.239, 542.706 627.627 M 565.315 627.954 C 561.974 629.382, 561 632.181, 561 640.363 C 561 648.756, 561.314 649.297, 568.356 653.033 L 573 655.497 573 661.141 C 573 665.187, 572.583 666.946, 571.529 667.351 C 569.838 667.999, 567 665.542, 567 663.429 C 567 662.495, 565.916 662, 563.868 662 C 560.787 662, 560.745 662.065, 561.278 666.039 C 562.074 671.969, 563.356 673, 569.931 673 C 578.095 673, 579.335 671.762, 579.823 663.123 C 580.393 653.037, 579.878 651.791, 573.774 648.501 C 570.873 646.937, 568.169 645.172, 567.765 644.579 C 566.543 642.783, 566.911 636.504, 568.355 634.529 C 570.325 631.835, 573 633.240, 573 636.969 C 573 639.766, 573.270 640, 576.500 640 C 579.900 640, 580 639.889, 580 636.111 C 580 630.623, 577.479 627.895, 571.961 627.411 C 569.507 627.196, 566.517 627.440, 565.315 627.954 M 381.667 633.667 C 381.300 634.033, 381 638.112, 381 642.730 L 381 651.127 384.250 650.813 L 387.500 650.500 387.796 643.158 C 387.979 638.605, 387.647 635.280, 386.923 634.408 C 385.700 632.934, 382.807 632.526, 381.667 633.667 M 405.828 641.071 C 405.477 649.829, 406.125 651.074, 409.964 649.019 C 411.871 647.999, 412.056 647.157, 411.793 640.692 C 411.509 633.726, 411.416 633.490, 408.828 633.191 L 406.156 632.882 405.828 641.071 M 494.709 633.624 C 494.319 634.014, 494 638.083, 494 642.667 L 494 651 497.039 651 L 500.078 651 499.789 642.250 C 499.527 634.315, 499.310 633.473, 497.459 633.208 C 496.336 633.047, 495.099 633.235, 494.709 633.624" stroke="none" fill="black" fill-rule="evenodd"/>
</svg>